<?xml version="1.0" standalone="no"?>
<!DOCTYPE svg PUBLIC "-//W3C//DTD SVG 20010904//EN"
 "http://www.w3.org/TR/2001/REC-SVG-20010904/DTD/svg10.dtd">
<svg version="1.0" xmlns="http://www.w3.org/2000/svg"
 width="499.000000pt" height="500.000000pt" viewBox="0 0 499.000000 500.000000"
 preserveAspectRatio="xMidYMid meet">

<g transform="translate(0.000000,500.000000) scale(0.100000,-0.100000)"
fill="#000000" stroke="none">
<path d="M0 2500 l0 -2500 1501 0 c1435 0 1500 1 1487 18 -7 10 -49 64 -92
120 l-79 102 -1284 0 -1283 0 0 2255 0 2255 758 0 757 0 56 -77 c30 -43 233
-328 450 -633 218 -305 552 -775 744 -1045 192 -269 349 -497 349 -505 0 -8
-131 -197 -290 -420 -159 -223 -300 -420 -312 -438 l-23 -32 179 0 179 0 26
38 c160 234 422 592 431 589 5 -2 109 -142 230 -313 l221 -309 179 -3 179 -2
-18 27 c-10 16 -93 134 -185 263 -387 546 -545 769 -982 1385 -253 358 -618
873 -811 1145 -193 272 -364 514 -381 538 l-30 42 -978 0 -978 0 0 -2500z"/>
<path d="M2340 4995 c0 -2 38 -58 86 -125 l85 -120 1125 0 1124 0 0 -2255 0
-2255 -609 0 -609 0 -263 342 c-145 188 -288 374 -318 412 -289 377 -1009
1310 -1146 1486 -83 107 -271 351 -419 543 l-267 347 -145 0 -144 0 2 -883 3
-882 148 -3 147 -3 0 631 c0 395 4 630 10 630 5 0 20 -15 34 -32 47 -62 449
-583 616 -798 91 -118 260 -336 375 -485 115 -148 254 -328 310 -400 55 -71
278 -358 494 -637 l392 -508 810 0 809 0 0 2500 0 2500 -1325 0 c-729 0 -1325
-2 -1325 -5z"/>
<path d="M2080 2902 l0 -467 131 -165 c72 -91 139 -176 150 -190 18 -25 18
-12 19 633 l0 657 -150 0 -150 0 0 -468z"/>
<path d="M3835 3136 c-93 -129 -167 -238 -166 -242 3 -17 166 -243 173 -241 4
1 111 148 238 327 127 179 237 332 243 340 7 9 18 23 26 33 13 16 2 17 -167
17 l-180 0 -167 -234z"/>
</g>
</svg>
